<svg width="64" height="64" viewBox="0 0 64 64" fill="none" xmlns="http://www.w3.org/2000/svg">
<mask id="mask0_11_9" style="mask-type:luminance" maskUnits="userSpaceOnUse" x="3" y="0" width="58" height="64">
<path d="M60.1154 0H3.5V64H60.1154V0Z" fill="white"/>
</mask>
<g mask="url(#mask0_11_9)">
<path d="M56.4741 27.8975H6.32031C5.21574 27.8975 4.32031 28.793 4.32031 29.8975V40.6667C4.32031 41.7713 5.21574 42.6667 6.32031 42.6667H56.4741C57.5787 42.6667 58.4741 41.7713 58.4741 40.6667V29.8975C58.4741 28.793 57.5787 27.8975 56.4741 27.8975Z" fill="#26D07C"/>
<path d="M56.5761 26.614H7.21387C5.31849 26.614 3.77637 28.1561 3.77637 30.0515V40.7373C3.77637 42.6326 5.31849 44.1748 7.21387 44.1748H20.8042V45.0024C20.7977 45.3055 20.8762 45.7601 21.2746 46.2406C21.3219 46.2976 21.3581 46.3659 21.3881 46.439H17.895C17.3771 46.439 16.9575 46.8586 16.9575 47.3765C16.9575 47.8944 17.3771 48.314 17.895 48.314H21.4591L21.4487 51.5883C20.8162 51.3971 20.1382 51.2864 19.4366 51.2624C18.4601 51.2283 17.5186 51.3655 16.6711 51.6604C15.6909 50.635 14.318 50.0534 12.8776 50.078C10.2847 50.1218 8.13437 52.0993 7.87562 54.678C7.73224 56.1078 8.17187 57.4886 9.11362 58.5664C10.0425 59.6291 11.3837 60.2665 12.7937 60.3148C12.8542 60.317 12.9147 60.3179 12.9749 60.3179C14.2664 60.3179 15.4821 59.8416 16.4205 58.9811C17.2457 59.333 18.176 59.534 19.1509 59.5674C21.0609 59.6361 22.8625 59.0195 23.9597 57.9509L25.2422 57.7384C26.6935 57.4976 27.7195 56.1665 27.5845 54.7034L27.1585 48.314H56.576C57.4376 48.314 58.1385 49.0149 58.1385 49.8765V60.5624C58.1385 61.424 57.4376 62.1249 56.576 62.1249H7.21387C6.35224 62.1249 5.65137 61.424 5.65137 60.5624V49.8766C5.65137 49.015 6.35224 48.3141 7.21387 48.3141H13.52C14.0379 48.3141 14.4575 47.8945 14.4575 47.3766C14.4575 46.8588 14.0379 46.4391 13.52 46.4391H7.21387C5.31849 46.4391 3.77637 47.9813 3.77637 49.8766V60.5624C3.77637 62.4578 5.31849 63.9999 7.21387 63.9999H56.5761C58.4715 63.9999 60.0136 62.4578 60.0136 60.5624V49.8766C60.0136 47.9813 58.4715 46.4391 56.5761 46.4391H27.1004C27.1275 46.3509 27.1651 46.2695 27.2169 46.2014C27.451 45.8935 27.5756 45.562 27.5875 45.2159C27.5879 45.2051 27.5881 45.1944 27.5881 45.1836V44.1749H56.5761C58.4715 44.1749 60.0136 42.6328 60.0136 40.7374V37.7499C60.0136 37.232 59.594 36.8124 59.0761 36.8124C58.5582 36.8124 58.1386 37.232 58.1386 37.7499V40.7373C58.1386 41.5989 57.4377 42.2998 56.5761 42.2998H27.2414C27.0017 42.0033 26.6531 41.8016 26.2405 41.7525C26.2036 41.7481 26.1666 41.7459 26.1295 41.7459H22.4246C22.409 41.7459 22.3932 41.7463 22.3776 41.7471C21.9277 41.7698 21.5174 41.9823 21.2281 42.2998H7.21387C6.35224 42.2998 5.65137 41.5989 5.65137 40.7373V30.0515C5.65137 29.1899 6.35224 28.489 7.21387 28.489H56.5761C57.4377 28.489 58.1386 29.1899 58.1386 30.0515V33.3749C58.1386 33.8928 58.5582 34.3124 59.0761 34.3124C59.594 34.3124 60.0136 33.8928 60.0136 33.3749V30.0515C60.0136 28.1561 58.4715 26.614 56.5761 26.614ZM22.3296 53.9424C22.9107 53.9539 23.3175 53.5083 23.3191 53.0038L23.3387 46.8376C23.3409 46.1663 23.1202 45.5291 22.7177 45.0439C22.6986 45.0208 22.6864 45.0031 22.679 44.9911V43.6209H25.7129V45.0814C25.3284 45.5949 25.1419 46.2526 25.1874 46.9355L25.7145 54.8413C25.715 54.8491 25.7156 54.8569 25.7164 54.8649C25.7626 55.3494 25.3997 55.8116 24.9195 55.8913L23.3424 56.1526C23.1237 56.1889 22.927 56.3024 22.7819 56.4699C22.0936 57.2641 20.6919 57.7444 19.2152 57.6938C18.5494 57.6708 17.9 57.5425 17.3275 57.3246C16.9745 57.1903 16.6477 56.9953 16.349 56.7643L15.899 56.4163C15.524 56.0135 14.8774 56.0149 14.5051 56.4399C14.1815 56.8095 14.2206 57.373 14.5595 57.7288C14.6195 57.7916 14.6817 57.8531 14.7462 57.9133C14.194 58.2758 13.5405 58.4626 12.858 58.4411C11.9511 58.4099 11.1226 58.0164 10.5252 57.3326C9.92849 56.6496 9.64987 55.7734 9.74112 54.8653C9.90212 53.2594 11.2936 51.9801 12.9089 51.9529C12.9272 51.9525 12.9456 51.9524 12.9639 51.9524C14.0256 51.9524 15.0199 52.4684 15.6299 53.3398C15.8926 53.7151 16.3956 53.8269 16.8086 53.6283C17.5341 53.2793 18.444 53.1041 19.3719 53.1364C20.3081 53.1688 21.2109 53.4091 21.9137 53.8135C22.0416 53.8869 22.1825 53.9395 22.3296 53.9424Z" fill="black"/>
<path d="M23.5727 40.3032H26.5761C27.4381 40.3032 28.1392 39.6021 28.1392 38.7401V32.0492C28.1392 31.1872 27.4381 30.4861 26.5761 30.4861H23.5727C22.7107 30.4861 22.0096 31.1872 22.0096 32.0492V32.7711H14.1252V32.0492C14.1252 31.1872 13.4241 30.4861 12.5621 30.4861H9.55873C8.69673 30.4861 7.99561 31.1872 7.99561 32.0492V38.7401C7.99561 39.6021 8.69673 40.3032 9.55873 40.3032H12.5621C13.4241 40.3032 14.1252 39.6021 14.1252 38.7401V38.0181H22.0096V38.7401C22.0096 39.602 22.7107 40.3032 23.5727 40.3032ZM23.8846 32.3611H26.2642V38.4282H23.8846V32.3611ZM12.2502 38.4282H9.87061V32.3611H12.2502V38.4282ZM14.1252 36.1431V34.6461H22.0096V36.1431H14.1252Z" fill="black"/>
<path d="M56.5761 8.19112H26.4856V4.25825C26.4856 3.05138 25.5039 2.0695 24.297 2.0695H21.6996C20.7192 0.8115 19.1914 0 17.4765 0C15.7617 0 14.2339 0.8115 13.2535 2.06962H10.6562C9.44937 2.06962 8.46749 3.05138 8.46749 4.25838V8.19125H7.21387C5.31849 8.19125 3.77637 9.73337 3.77637 11.6287V20.9125C3.77637 22.8079 5.31849 24.35 7.21387 24.35H56.5761C58.4715 24.35 60.0136 22.8079 60.0136 20.9125V11.6287C60.0136 9.73325 58.4715 8.19112 56.5761 8.19112ZM17.4765 1.875C19.3941 1.875 20.9542 3.435 20.9542 5.35262C20.9542 7.27025 19.3941 8.83037 17.4765 8.83037C15.5589 8.83037 13.9989 7.27025 13.9989 5.35262C13.9989 3.435 15.559 1.875 17.4765 1.875ZM58.1386 20.9124C58.1386 21.774 57.4377 22.4749 56.5761 22.4749H7.21387C6.35224 22.4749 5.65137 21.774 5.65137 20.9124V11.6286C5.65137 10.767 6.35224 10.0661 7.21387 10.0661H8.46749V17.6231C8.46749 18.8299 9.44924 19.8118 10.6562 19.8118H24.297C25.5037 19.8118 26.4856 18.83 26.4856 17.6231V16C26.4856 15.4821 26.066 15.0625 25.5481 15.0625C25.0302 15.0625 24.6106 15.4821 24.6106 16V17.6231C24.6106 17.7961 24.47 17.9368 24.297 17.9368H10.6562C10.4832 17.9368 10.3425 17.7961 10.3425 17.6231V4.25825C10.3425 4.08525 10.4832 3.9445 10.6562 3.9445H12.3132C12.1906 4.3935 12.124 4.86525 12.124 5.35262C12.124 8.30412 14.5252 10.7054 17.4766 10.7054C20.4281 10.7054 22.8294 8.30412 22.8294 5.35262C22.8294 4.86538 22.7626 4.3935 22.6401 3.9445H24.2971C24.4701 3.9445 24.6107 4.08525 24.6107 4.25825V11.625C24.6107 12.1429 25.0304 12.5625 25.5482 12.5625C26.0661 12.5625 26.4857 12.1429 26.4857 11.625V10.0661H56.5764C57.438 10.0661 58.1389 10.767 58.1389 11.6286L58.1386 20.9124Z" fill="black"/>
<path d="M15.5851 5.05386L16.8959 6.08861C17.068 6.22449 17.2729 6.29024 17.4762 6.29024C17.7534 6.29024 18.0276 6.16799 18.2127 5.93361C18.5335 5.52724 18.4642 4.93761 18.0579 4.61686L16.7471 3.58211C16.3405 3.26124 15.7512 3.33061 15.4304 3.73699C15.1094 4.14336 15.1787 4.73299 15.5851 5.05386Z" fill="black"/>
<path d="M53.4193 15.3328H39.4023C38.8845 15.3328 38.4648 15.7524 38.4648 16.2703C38.4648 16.7881 38.8845 17.2078 39.4023 17.2078H53.4195C53.9373 17.2078 54.357 16.7881 54.357 16.2703C54.357 15.7524 53.9372 15.3328 53.4193 15.3328Z" fill="black"/>
<path d="M36.399 15.3328H31.6445C31.1267 15.3328 30.707 15.7524 30.707 16.2703C30.707 16.7881 31.1267 17.2078 31.6445 17.2078H36.399C36.9169 17.2078 37.3365 16.7881 37.3365 16.2703C37.3365 15.7524 36.9169 15.3328 36.399 15.3328Z" fill="black"/>
<path d="M49.1611 34.457C48.6433 34.457 48.2236 34.8767 48.2236 35.3945C48.2236 35.9124 48.6433 36.332 49.1611 36.332H53.419C53.9369 36.332 54.3565 35.9124 54.3565 35.3945C54.3565 34.8767 53.9369 34.457 53.419 34.457H49.1611Z" fill="black"/>
<path d="M31.6445 34.457C31.1267 34.457 30.707 34.8767 30.707 35.3945C30.707 35.9124 31.1267 36.332 31.6445 36.332H46.2833C46.8012 36.332 47.2208 35.9124 47.2208 35.3945C47.2208 34.8767 46.8012 34.457 46.2833 34.457H31.6445Z" fill="black"/>
<path d="M53.4192 56.157C53.9371 56.157 54.3567 55.7374 54.3567 55.2195C54.3567 54.7016 53.9371 54.282 53.4192 54.282H40.0278C39.51 54.282 39.0903 54.7016 39.0903 55.2195C39.0903 55.7374 39.51 56.157 40.0278 56.157H53.4192Z" fill="black"/>
<path d="M36.8995 56.157C37.4174 56.157 37.837 55.7374 37.837 55.2195C37.837 54.7016 37.4174 54.282 36.8995 54.282H31.6445C31.1267 54.282 30.707 54.7016 30.707 55.2195C30.707 55.7374 31.1267 56.157 31.6445 56.157H36.8995Z" fill="black"/>
</g>
</svg>
