<svg width="64" height="64" viewBox="0 0 64 64" fill="none" xmlns="http://www.w3.org/2000/svg">
<g clip-path="url(#clip0_11_31)">
<mask id="mask0_11_31" style="mask-type:luminance" maskUnits="userSpaceOnUse" x="17" y="0" width="30" height="64">
<path d="M47 0H17V64H47V0Z" fill="white"/>
</mask>
<g mask="url(#mask0_11_31)">
<path d="M30 16H22V24H30V16Z" fill="#26D07C"/>
<path d="M42 16H34V24H42V16Z" fill="#26D07C"/>
<path d="M30 28H22V35H30V28Z" fill="#26D07C"/>
<path d="M42 28H34V36H42V28Z" fill="#26D07C"/>
<path d="M41 59H27V63H41V59Z" fill="#26D07C"/>
<path d="M41.8249 0H22.1774C19.1586 0 16.7036 2.45625 16.7036 5.475V46.3925C16.7036 49.4113 19.1599 51.8675 22.1774 51.8675H24.9586L26.5461 54.6162C26.9811 55.37 27.1749 56.0938 27.1749 56.9625V57.6287H26.6536C25.8649 57.6287 25.2224 58.2713 25.2224 59.06V62.5675C25.2224 63.3563 25.8649 63.9987 26.6536 63.9987H40.6961C41.4849 63.9987 42.1274 63.3563 42.1274 62.5675V59.06C42.1274 58.2713 41.4849 57.6287 40.6961 57.6287H40.6686L41.3649 55.94C41.7136 55.0938 41.8686 54.3063 41.8686 53.3875V51.8662C44.8661 51.8438 47.2974 49.3975 47.2974 46.3925V5.475C47.2961 2.45625 44.8424 0 41.8249 0ZM40.1286 62.0013H27.2199V59.6275H39.1699H39.1749H39.1786H40.1286V62.0013ZM29.1724 57.6287V56.9625C29.1724 55.74 28.8874 54.6775 28.2761 53.6175L23.9499 46.1237C23.8724 45.9888 23.8511 45.83 23.8936 45.6763C23.9324 45.5325 24.0199 45.4125 24.1411 45.335C24.3049 45.26 24.7286 45.1188 24.9699 45.535L27.3086 49.5887C27.5349 49.98 27.9949 50.1725 28.4324 50.055C28.8699 49.9375 29.1736 49.5425 29.1736 49.09V35.6175C29.1736 35.2988 29.4424 35.0288 29.7624 35.0288C30.0824 35.0288 30.3511 35.2975 30.3511 35.6175V46.0387C30.3511 46.59 30.7986 47.0375 31.3499 47.0375C31.9011 47.0375 32.3486 46.59 32.3486 46.0387V39.7637C32.3486 39.4412 32.6124 39.1787 32.9374 39.1787C33.2561 39.1787 33.5261 39.4462 33.5261 39.7637V46.9075C33.5261 47.46 33.9736 47.9062 34.5249 47.9062C35.0761 47.9062 35.5236 47.4588 35.5236 46.9075V41.7125C35.5236 41.3938 35.7911 41.1237 36.1086 41.1237C36.4274 41.1237 36.6974 41.3925 36.6974 41.7125V48.6362C36.6974 49.1888 37.1449 49.635 37.6961 49.635C38.2474 49.635 38.6949 49.1875 38.6949 48.6362V43.1188C38.6949 42.8 38.9636 42.53 39.2836 42.53C39.6036 42.53 39.8724 42.7988 39.8724 43.1188V53.3875C39.8724 54.0413 39.7661 54.5775 39.5186 55.1787L38.5086 57.6287H29.1724ZM29.1261 33.1125C28.2149 33.3438 27.4974 34.0575 27.2599 34.965H22.7086C22.6974 34.965 22.6874 34.955 22.6874 34.9437V28.5475C22.6874 28.5387 22.6986 28.5263 22.7086 28.5263H29.1049C29.1124 28.5263 29.1261 28.54 29.1261 28.5475V33.1125ZM45.2974 46.3925C45.2974 48.295 43.7624 49.845 41.8674 49.8675V43.1188C41.8674 41.6925 40.7074 40.5325 39.2811 40.5325C38.9986 40.5325 38.7249 40.5787 38.4699 40.6625C38.0661 39.7575 37.1586 39.1263 36.1061 39.1263C35.8836 39.1263 35.6674 39.155 35.4611 39.2075C35.2061 38.05 34.1699 37.1813 32.9349 37.1813C32.7324 37.1813 32.5361 37.205 32.3461 37.2487V35.6188C32.3461 34.6938 31.8561 33.8825 31.1236 33.425V28.55C31.1236 27.4362 30.2174 26.53 29.1036 26.53H22.7074C21.5936 26.53 20.6874 27.4362 20.6874 28.55V34.9463C20.6874 36.06 21.5936 36.9663 22.7074 36.9663H27.1724V45.36L26.6986 44.5375C25.9936 43.3162 24.5299 42.9062 23.2186 43.5625C23.2011 43.5713 23.1849 43.58 23.1674 43.59C22.5699 43.9325 22.1424 44.49 21.9624 45.1587C21.7824 45.8287 21.8736 46.5275 22.2186 47.125L23.8036 49.8713H22.1761C20.2599 49.8713 18.6999 48.3125 18.6999 46.395V5.475C18.6999 3.55875 20.2586 1.99875 22.1761 1.99875H41.8249C43.7399 1.99875 45.2974 3.5575 45.2974 5.475V46.3925ZM38.4836 6.61625H25.5186C24.9661 6.61625 24.5199 6.16875 24.5199 5.6175C24.5199 5.06625 24.9674 4.61875 25.5186 4.61875H38.4836C39.0361 4.61875 39.4824 5.06625 39.4824 5.6175C39.4824 6.16875 39.0361 6.61625 38.4836 6.61625ZM29.1049 14.9038H22.7086C21.5949 14.9038 20.6886 15.81 20.6886 16.9237V23.32C20.6886 24.4338 21.5949 25.34 22.7086 25.34H29.1049C30.2186 25.34 31.1249 24.4338 31.1249 23.32V16.9237C31.1249 15.81 30.2186 14.9038 29.1049 14.9038ZM29.1261 23.3188C29.1261 23.3288 29.1136 23.34 29.1049 23.34H22.7086C22.6974 23.34 22.6874 23.33 22.6874 23.3188V16.9225C22.6874 16.9137 22.6986 16.9013 22.7086 16.9013H29.1049C29.1124 16.9013 29.1261 16.915 29.1261 16.9225V23.3188ZM41.2936 14.9038H34.8974C33.7824 14.9038 32.8736 15.81 32.8736 16.9237V23.32C32.8736 24.4338 33.7811 25.34 34.8974 25.34H41.2936C42.4074 25.34 43.3136 24.4338 43.3136 23.32V16.9237C43.3136 15.81 42.4074 14.9038 41.2936 14.9038ZM41.3149 23.3188C41.3149 23.3288 41.3024 23.34 41.2936 23.34H34.8974C34.8836 23.34 34.8724 23.3288 34.8724 23.3188V16.9225C34.8724 16.9163 34.8836 16.9013 34.8974 16.9013H41.2936C41.3011 16.9013 41.3149 16.915 41.3149 16.9225V23.3188ZM41.2936 26.5287H34.8974C33.7824 26.5287 32.8736 27.435 32.8736 28.5487V34.945C32.8736 36.0588 33.7811 36.965 34.8974 36.965H41.2936C42.4074 36.965 43.3136 36.0588 43.3136 34.945V28.5487C43.3136 27.435 42.4074 26.5287 41.2936 26.5287ZM41.3149 34.945C41.3149 34.955 41.3024 34.9663 41.2936 34.9663H34.8974C34.8836 34.9663 34.8724 34.955 34.8724 34.945V28.5487C34.8724 28.5425 34.8836 28.5275 34.8974 28.5275H41.2936C41.3011 28.5275 41.3149 28.5413 41.3149 28.5487V34.945Z" fill="black"/>
</g>
</g>
<defs>
<clipPath id="clip0_11_31">
<rect width="64" height="64" fill="white"/>
</clipPath>
</defs>
</svg>
